<svg version="1.1" id="Layer_1" xmlns="http://www.w3.org/2000/svg" x="0" y="0" viewBox="0 0 32 32" style="enable-background:new 0 0 32 32" xml:space="preserve"><style>.st0{fill:#ffffff}.st1{fill:#ffffff}</style><path class="st0" d="M26 19a1 1 0 0 1-1-1V6a1 1 0 1 1 2 0v12a1 1 0 0 1-1 1zM24 5H12a1 1 0 1 1 0-2h12a1 1 0 1 1 0 2z"/><path class="st0" d="M19 12a.999.999 0 0 1-.707-1.707l5.657-5.657a.999.999 0 1 1 1.414 1.414l-5.657 5.657A.997.997 0 0 1 19 12z"/><path class="st0" d="M26.071 6.927a2.99 2.99 0 0 1-2.121-.877 2.98 2.98 0 0 1-.878-2.121c0-.801.312-1.555.878-2.121a3.002 3.002 0 0 1 4.243 0c.566.566.878 1.32.878 2.121a2.994 2.994 0 0 1-3 2.998zm0-3.997a1 1 0 1 0 .707 1.706.989.989 0 0 0 .292-.707.991.991 0 0 0-.293-.707.988.988 0 0 0-.706-.292z"/><path class="st1" d="M19 25c-3.74 0-7.255-1.456-9.899-4.101-5.458-5.459-5.458-14.34 0-19.799a1.03 1.03 0 0 1 1.414 0L28.9 19.485a.999.999 0 0 1 0 1.414A13.907 13.907 0 0 1 19 25zM9.837 3.251c-3.988 4.71-3.762 11.794.678 16.234A11.917 11.917 0 0 0 19 23c2.87 0 5.585-1 7.75-2.837L9.837 3.251z"/><path class="st1" d="M19 21a9.93 9.93 0 0 1-7.071-2.929.999.999 0 1 1 1.414-1.414A7.948 7.948 0 0 0 19 19a1 1 0 1 1 0 2zM16 31H2a1 1 0 0 1-.841-1.542L8.088 18.68a1 1 0 0 1 1.683 1.082L3.832 29H15v-5.352a1 1 0 1 1 2 0V30a1 1 0 0 1-1 1z"/><path class="st1" d="M27 31H16a1 1 0 1 1 0-2h11a1 1 0 1 1 0 2z"/></svg>
